Coordinates
version=1
nRows=15
nColumns=26
inDegrees=yes

Units are S.I. units (second, meters, Newtons, ...)
If the header above contains a line with 'inDegrees', this indicates whether rotational values are in degrees (yes) or radians (no).

endheader
time	pelvis_tilt	pelvis_list	pelvis_rotation	pelvis_tx	pelvis_ty	pelvis_tz	hip_flexion_l	hip_adduction_l	hip_rotation_l	hip_flexion_r	hip_adduction_r	hip_rotation_r	knee_angle_l_beta	knee_angle_r_beta	knee_angle_l	knee_angle_r	ankle_angle_l	ankle_angle_r	subtalar_angle_l	subtalar_angle_r	mtp_angle_l	mtp_angle_r	lumbar_ext	lumbar_bend	lumbar_rota
      1.30000000	      2.35113666	      4.04287575	      1.35173695	      0.36017027	      0.85276948	     -0.24231836	      1.29369583	      9.45065622	     -3.79778652	     31.92686243	     -5.52871775	     -5.39229101	      0.36554156	      0.89792698	    -20.94398877	    -51.44742652	      4.54002110	    -11.38037959	      0.00000000	      0.00000000	      0.00000000	      0.00000000	    -15.14168899	     -2.60265340	     -1.27565322
      1.31000000	      2.34288343	      4.13968710	      1.50439391	      0.37037877	      0.85194784	     -0.24238396	      0.19299077	      9.52347443	     -3.71013635	     32.17831882	     -5.66148602	     -5.76373091	      0.35581753	      0.83928674	    -20.38684298	    -48.08758827	      4.82019654	    -11.57799415	      0.00000000	      0.00000000	      0.00000000	      0.00000000	    -15.13673888	     -2.70200097	     -1.52894892
      1.32000000	      2.29087850	      4.20308954	      1.64629868	      0.38054743	      0.85092829	     -0.24235773	     -0.79161650	      9.54474802	     -3.64764383	     32.34917782	     -5.74740815	     -6.20728445	      0.34831709	      0.77680438	    -19.95709917	    -44.50761225	      5.13419066	    -11.84515952	      0.00000000	      0.00000000	      0.00000000	      0.00000000	    -15.09046328	     -2.77349621	     -1.74430312
      1.33000000	      2.24322894	      4.23988167	      1.75122867	      0.39070088	      0.84981878	     -0.24222223	     -1.76730469	      9.52817161	     -3.61179798	     32.37814648	     -5.77814075	     -6.70919861	      0.34100294	      0.71056097	    -19.53802908	    -40.71214453	      5.43055039	    -12.11244554	      0.00000000	      0.00000000	      0.00000000	      0.00000000	    -15.06395217	     -2.82294682	     -1.89615366
      1.34000000	      2.07545732	      4.23342978	      1.87887275	      0.40078101	      0.84841220	     -0.24202733	     -2.45981156	      9.45137189	     -3.57623725	     32.40674280	     -5.74995689	     -7.29406562	      0.33875494	      0.64122152	    -19.40922854	    -36.73928660	      5.80968280	    -12.57906875	      0.00000000	      0.00000000	      0.00000000	      0.00000000	    -14.91408946	     -2.83259744	     -2.03529591
      1.35000000	      1.60542399	      4.37728080	      1.96673546	      0.41067047	      0.84638674	     -0.24167806	     -2.75374347	      9.57671350	     -3.40302622	     32.74857124	     -5.79087643	     -7.64262753	      0.33816379	      0.57197302	    -19.37535808	    -32.77163994	      6.10163912	    -12.79165765	      0.00000000	      0.00000000	      0.00000000	      0.00000000	    -14.44517664	     -3.05707028	     -2.13703484
      1.36000000	      1.27634094	      4.35826669	      2.06519022	      0.42070166	      0.84452850	     -0.24134788	     -3.13771980	      9.49546637	     -3.27725307	     32.71649732	     -5.66862020	     -8.21125161	      0.34021072	      0.49888856	    -19.49263865	    -28.58420874	      6.47982173	    -13.31825398	      0.00000000	      0.00000000	      0.00000000	      0.00000000	    -14.12882709	     -3.05994967	     -2.15868604
      1.37000000	      1.44826027	      3.90268193	      2.13078996	      0.43114799	      0.84334619	     -0.24067413	     -3.85793527	      8.77881044	     -3.67019082	     31.75091987	     -5.03872717	     -9.19050453	      0.35033052	      0.41821448	    -20.07246040	    -23.96192436	      7.18037559	    -14.26510211	      0.00000000	      0.00000000	      0.00000000	      0.00000000	    -14.34958021	     -2.55694330	     -2.10960944
      1.38000000	      1.19105852	      3.72291185	      2.19903053	      0.44146187	      0.84133851	     -0.24001246	     -4.11294214	      8.44708490	     -3.71174894	     31.36686313	     -4.63881408	     -9.79117903	      0.36005888	      0.34466276	    -20.62985394	    -19.74772140	      7.70052374	    -14.95422841	      0.00000000	      0.00000000	      0.00000000	      0.00000000	    -14.09294089	     -2.39908776	     -2.05971252
      1.39000000	      0.64696207	      3.85617415	      2.27791601	      0.45181416	      0.83878333	     -0.23937879	     -4.19587239	      8.53693871	     -3.39057275	     31.49632620	     -4.57746083	    -10.17695181	      0.36504703	      0.28329843	    -20.91565408	    -16.23180445	      7.98075542	    -15.23025680	      0.00000000	      0.00000000	      0.00000000	      0.00000000	    -13.50462477	     -2.63008631	     -2.07839775
      1.40000000	      0.71822955	      3.38172463	      2.29020453	      0.46268237	      0.83700623	     -0.23848882	     -4.62706899	      7.78678346	     -3.68224056	     30.64874521	     -3.81907523	    -10.88500625	      0.38256311	      0.21970921	    -21.91925188	    -12.58841031	      8.67872567	    -16.22894773	      0.00000000	      0.00000000	      0.00000000	      0.00000000	    -13.57299146	     -2.10325900	     -1.87222700
      1.41000000	      0.49790022	      3.21647711	      2.30801330	      0.47358924	      0.83471152	     -0.23767047	     -4.88467563	      7.45634722	     -3.61572517	     30.51569657	     -3.44664501	    -11.44261342	      0.39512741	      0.17700668	    -22.63913301	    -10.14173560	      9.12792038	    -16.58781158	      0.00000000	      0.00000000	      0.00000000	      0.00000000	    -13.30230079	     -1.95182545	     -1.73518511
      1.42000000	      0.25557165	      3.14369974	      2.29241063	      0.48464298	      0.83241411	     -0.23686140	     -5.25093709	      7.29052055	     -3.30072487	     30.71041472	     -3.22776195	    -11.98246514	      0.40355945	      0.15296128	    -23.12225301	     -8.76403567	      9.37691857	    -16.67113082	      0.00000000	      0.00000000	      0.00000000	      0.00000000	    -12.99857811	     -1.89878467	     -1.58263731
      1.43000000	      0.13336834	      3.18488767	      2.07706855	      0.49587287	      0.83031419	     -0.23589093	     -5.86104988	      7.27390345	     -3.14222703	     31.11523629	     -3.10615973	    -12.38426949	      0.40814357	      0.14843652	    -23.38490403	     -8.50478624	      9.39657911	    -16.58434540	      0.00000000	      0.00000000	      0.00000000	      0.00000000	    -12.83483830	     -1.98293296	     -1.26042701
      1.44000000	      0.15320420	      2.82743493	      2.05978657	      0.50759014	      0.82847327	     -0.23507802	     -6.50823056	      6.73582539	     -2.97198657	     31.42123649	     -2.74971312	    -13.36192044	      0.41793060	      0.15635935	    -23.94565946	     -8.95873100	      9.61489574	    -16.32436322	      0.00000000	      0.00000000	      0.00000000	      0.00000000	    -12.76881387	     -1.54036109	     -1.09761656
